<?xml version="1.0" encoding="UTF-8"?>
<svg xmlns="http://www.w3.org/2000/svg" xmlns:xlink="http://www.w3.org/1999/xlink" width="16px" height="16px" viewBox="0 0 16 16" version="1.1">
<g id="surface1">
<path style="fill-rule:nonzero;fill:rgb(94.901961%,77.647059%,28.627451%);fill-opacity:1;stroke-width:1;stroke-linecap:butt;stroke-linejoin:miter;stroke:rgb(94.901961%,77.647059%,28.627451%);stroke-opacity:1;stroke-miterlimit:4;" d="M 233.7255 0 C 104.651506 0 0 104.651506 0 233.7255 C 0 362.799494 104.651506 467.451 233.7255 467.451 C 362.799494 467.451 467.451 362.799494 467.451 233.7255 C 467.451 104.651506 362.799494 0 233.7255 0 Z M 64.93643 250.0452 L 55.235909 250.0452 C 55.235909 197.205891 74.636952 148.817408 106.477486 111.498932 C 108.759962 113.781408 111.042437 116.063884 113.324913 118.346359 C 83.196235 153.952978 64.93643 199.944861 64.93643 250.0452 Z M 98.945317 250.0452 L 89.244795 250.0452 C 89.244795 206.564041 104.765629 166.620718 130.557604 135.464926 L 137.40503 142.426477 C 113.324913 171.756288 98.945317 209.188887 98.945317 250.0452 Z M 233.7255 326.394009 C 182.483923 326.394009 141.056991 284.967077 141.056991 233.7255 C 141.056991 182.483923 182.483923 141.056991 233.7255 141.056991 C 284.967077 141.056991 326.394009 182.483923 326.394009 233.7255 C 326.394009 284.967077 284.967077 326.394009 233.7255 326.394009 Z M 333.469683 333.583807 C 357.549801 304.253996 372.043521 266.707272 372.043521 225.850959 L 381.744042 225.850959 C 381.744042 269.446243 366.223208 309.389566 340.431234 340.431234 Z M 364.397227 364.511351 C 362.114752 362.228875 359.832276 359.9464 357.549801 357.663924 C 387.678478 322.057305 405.938283 276.065422 405.938283 225.850959 L 415.638804 225.850959 C 415.638804 278.804393 396.351885 327.192875 364.397227 364.511351 Z M 264.995416 233.7255 C 264.995416 250.958191 250.958191 264.995416 233.7255 264.995416 C 216.492809 264.995416 202.455584 250.958191 202.455584 233.7255 C 202.455584 216.492809 216.492809 202.455584 233.7255 202.455584 C 250.958191 202.455584 264.995416 216.492809 264.995416 233.7255 Z M 264.995416 233.7255 " transform="matrix(0.0342282,0,0,0.0342282,0,0)"/>
</g>
</svg>
